# xmcd CD database file
#
# Track frame offsets:
#	150
#	20553
#	35242
#	53095
#	76843
#	105782
#	115816
#	125951
#	141079
#	159268
#	175308
#	185878
#
# Disc length: 2635 seconds
#
# Revision: 0
# Processed by: cddbd v1.5PL3 Copyright (c) Steve Scherf et al.
# Submitted via: CDex 1.50
#
DISCID=a00a490c
DTITLE=L'Orphéon - Tatatin!.. et voilà.
DYEAR=2003
DGENRE=Jazz
TTITLE0=Just a gigolo (Juste un beau gigot)
TTITLE1=Donna Lee (Et youpi le Jazz!)
TTITLE2=Bossa Bossa
TTITLE3=Sinatra Fly to the moon
TTITLE4=Zorro
TTITLE5=Rhino Blues
TTITLE6=Golligwog's Cakewalk
TTITLE7=Quasimodo
TTITLE8=Concerto Carafon
TTITLE9=Raga Minou
TTITLE10=Le dompteur attendri
TTITLE11=C'est Kiki
EXTD=YEAR: 2003
EXTT0=
EXTT1=
EXTT2=
EXTT3=
EXTT4=
EXTT5=
EXTT6=
EXTT7=
EXTT8=
EXTT9=
EXTT10=
EXTT11=
PLAYORDER=
